<?xml version="1.0" encoding="utf-8"?>
<!-- Generator: Adobe Illustrator 26.3.1, SVG Export Plug-In . SVG Version: 6.00 Build 0)  -->
<svg version="1.1" id="Layer_1" xmlns="http://www.w3.org/2000/svg" xmlns:xlink="http://www.w3.org/1999/xlink" x="0px" y="0px"
	 viewBox="0 0 438 128" style="enable-background:new 0 0 438 128;" xml:space="preserve">
<style type="text/css">
	.st0{fill:#FBFBFB;}
</style>
<g>
	<path class="st0" d="M388.8,71.9c3.7-14.4,13.1-19.6,20.7-19.6c8.4,0,16.6,4.9,17.6,19.6H388.8z M413.1,127.4
		c11.1,0,18.7-3.8,24.3-8.3l-1.7-2.5c-5.3,3.9-11.7,6.7-20,6.7c-15,0-28.3-9.1-28.3-36.2c0-5.2,0.4-9.8,0.8-11.6H438
		c-3.2-19.5-15.4-26.6-28.5-26.6c-15.2,0-34.8,13.5-34.8,38.8C374.7,114.7,394.1,127.4,413.1,127.4z M325,126.2h26.1v-2.7
		c-7.2-1.7-7.4-4-7.4-23.6V72.6l8.2-8.9c2.7-3.1,3.9-4,6.4-4c3.4,0,5.8,3.1,9.8,3.1c3.8,0,5.9-3.1,5.9-7.4c0-3.4-2.4-5.7-6.6-5.7
		c-5.6,0-8.9,3.1-15.4,10.2l-8.2,8.8V49l-18.9,10.1v2.8c6.7,0.6,6.7,1.1,6.7,22V100c0,19.5-0.2,21.8-6.5,23.6v2.6H325z M269.4,71.9
		c3.7-14.4,13.1-19.6,20.7-19.6c8.4,0,16.5,4.9,17.6,19.6H269.4z M293.7,127.4c11.1,0,18.7-3.8,24.3-8.3l-1.7-2.5
		c-5.3,3.9-11.7,6.7-20,6.7c-15,0-28.3-9.1-28.3-36.2c0-5.2,0.4-9.8,0.8-11.6h49.8c-3.2-19.5-15.4-26.6-28.5-26.6
		c-15.2,0-34.8,13.5-34.8,38.8C255.3,114.7,274.7,127.4,293.7,127.4z M156.6,70.3c4.5,0,8-3.5,8-8c0-4.4-3.5-7.9-8-7.9
		c-4.4,0-7.8,3.5-7.8,7.9C148.8,66.9,152.1,70.3,156.6,70.3z M156.6,127.8c4.5,0,8-3.3,8-7.8s-3.5-7.9-8-7.9c-4.4,0-7.8,3.4-7.8,7.9
		S152.1,127.8,156.6,127.8z M103.1,124.3c-12.2,0-23-9.6-23-35.7c0-26,10.8-36.5,23-36.5c12.4,0,23.3,10.5,23.3,36.5
		C126.3,114.8,115.5,124.3,103.1,124.3z M103.1,127.6c16.2,0,36.2-13.8,36.2-38.9S119.3,49,103.1,49c-16,0-36,14.6-36,39.7
		C67.1,113.8,87.1,127.6,103.1,127.6z M37.4,127.2c11.4,0,19.5-4.3,24.5-10.7l-1.6-2c-4.7,5.2-11.5,8.7-20.3,8.7
		c-16.3,0-27.4-10.2-27.4-36.2c0-25.1,11.9-34.5,25.3-34.5c6,0,9.9,2.2,10.9,6.1c0.6,2.5,1.5,7.2,6.4,7.2c3.9,0,6.4-2.6,6.4-6.6
		c0-6.8-11.8-10-23.9-10C20.2,49.2,0,64.1,0,87.8C0,112.6,17.8,127.2,37.4,127.2L37.4,127.2z M175,126.2h25.7v-2.7
		c-6.9-1.7-7.1-4-7.1-23.6V70.4l5.4-4.9c9.6-8.8,15.4-11.5,20.6-11.5c6.5,0,10.5,3.8,10.5,14.1v31.7c0,19.5-0.3,21.8-7.2,23.6v2.7
		h25.8v-2.7c-6.4-1.7-6.4-4-6.4-23.6v-31c0-13.9-7.1-19.5-19.1-19.5c-7.6,0-15,3.8-24.2,12.4l-5.4,4.9V0.2l-18.7,9.6v2.6
		c6.5,0.3,6.5,0.8,6.5,19.7v67.7c0,19.5-0.2,21.8-6.4,23.6L175,126.2L175,126.2z"/>
</g>
</svg>
